<svg width="336" height="83" viewBox="0 0 336 83" fill="none" xmlns="http://www.w3.org/2000/svg">
<path d="M152.984 64C147.61 64 143.431 62.3843 140.447 59.153C137.482 55.9217 136 50.5973 136 43.1799C136 35.8727 137.501 30.5575 140.503 27.2344C143.505 23.9113 147.814 22.2497 153.429 22.2497C156.431 22.2497 159.396 22.6812 162.323 23.5441V25.4168C159.47 24.5171 156.458 24.0673 153.29 24.0673C149.954 24.0673 147.165 24.6916 144.923 25.94C142.68 27.1701 140.966 29.1805 139.78 31.9712C138.594 34.7619 138.001 38.4614 138.001 43.0698C138.001 47.8066 138.604 51.5887 139.808 54.4162C141.013 57.2252 142.708 59.2264 144.895 60.4198C147.1 61.5949 149.796 62.1824 152.984 62.1824C154.596 62.1824 156.125 62.0539 157.57 61.7968C159.034 61.5398 160.619 61.1175 162.323 60.53V62.4027C159.396 63.4676 156.282 64 152.984 64Z" fill="#111111"/>
<path d="M186.805 49.459H166.986C167.079 53.9755 168.042 57.2252 169.877 59.2081C171.73 61.1909 174.435 62.1824 177.993 62.1824C180.106 62.1824 182.58 61.7326 185.415 60.8329V62.7056C182.821 63.5685 180.31 64 177.882 64C173.657 64 170.451 62.7791 168.265 60.3372C166.078 57.877 164.985 53.9755 164.985 48.6328C164.985 43.4186 165.967 39.563 167.931 37.0661C169.895 34.5692 172.61 33.3207 176.075 33.3207C183.228 33.3207 186.805 38.4247 186.805 48.6328V49.459ZM176.075 35.1383C173.24 35.1383 171.035 36.1206 169.46 38.0851C167.885 40.0496 167.06 43.235 166.986 47.6414H184.831C184.757 43.2166 183.979 40.0312 182.496 38.0851C181.014 36.1206 178.874 35.1383 176.075 35.1383Z" fill="#111111"/>
<path d="M194.07 33.7613H195.738L195.905 37.314H196.127C197.424 36.0288 198.916 35.0465 200.602 34.3672C202.289 33.6695 204.059 33.3207 205.912 33.3207C212.12 33.3207 215.224 36.6071 215.224 43.1799V63.5043H213.333V43.1799C213.333 40.3158 212.685 38.2595 211.388 37.011C210.109 35.7625 208.265 35.1383 205.856 35.1383C204.096 35.1383 202.317 35.533 200.519 36.3225C198.722 37.0936 197.202 38.3237 195.96 40.0129V63.5043H194.07V33.7613Z" fill="#111111"/>
<path d="M234.762 62.1824C235.91 62.1824 237.226 62.008 238.709 61.6591V63.5318C237.337 63.8439 235.985 64 234.65 64C228.813 64 225.894 60.989 225.894 54.9669V35.5239H219.779V33.7613H225.894L226.117 22.7454H227.785V33.7613H238.097V35.5239H227.785V54.6365C227.785 57.317 228.359 59.2448 229.508 60.4198C230.675 61.5949 232.427 62.1824 234.762 62.1824Z" fill="#111111"/>
<path d="M263.354 49.459H243.535C243.628 53.9755 244.592 57.2252 246.426 59.2081C248.279 61.1909 250.985 62.1824 254.543 62.1824C256.655 62.1824 259.129 61.7326 261.964 60.8329V62.7056C259.37 63.5685 256.859 64 254.432 64C250.206 64 247.001 62.7791 244.814 60.3372C242.627 57.877 241.534 53.9755 241.534 48.6328C241.534 43.4186 242.516 39.563 244.48 37.0661C246.445 34.5692 249.159 33.3207 252.625 33.3207C259.778 33.3207 263.354 38.4247 263.354 48.6328V49.459ZM252.625 35.1383C249.79 35.1383 247.584 36.1206 246.009 38.0851C244.434 40.0496 243.609 43.235 243.535 47.6414H261.381C261.307 43.2166 260.528 40.0312 259.046 38.0851C257.563 36.1206 255.423 35.1383 252.625 35.1383Z" fill="#111111"/>
<path d="M270.62 33.7613H272.287L272.454 37.8097H272.677C273.788 36.4694 275.169 35.4229 276.818 34.6701C278.486 33.9174 280.182 33.541 281.905 33.541C282.758 33.541 283.536 33.6053 284.24 33.7338V35.6065C283.591 35.5147 282.804 35.4688 281.877 35.4688C280.172 35.4688 278.449 35.9002 276.707 36.7632C274.984 37.6261 273.585 38.8654 272.51 40.481V63.5043H270.62V33.7613Z" fill="#111111"/>
<path d="M308.415 49.459H288.596C288.689 53.9755 289.653 57.2252 291.487 59.2081C293.34 61.1909 296.046 62.1824 299.604 62.1824C301.716 62.1824 304.19 61.7326 307.025 60.8329V62.7056C304.431 63.5685 301.92 64 299.493 64C295.267 64 292.062 62.7791 289.875 60.3372C287.688 57.877 286.595 53.9755 286.595 48.6328C286.595 43.4186 287.577 39.563 289.541 37.0661C291.506 34.5692 294.22 33.3207 297.686 33.3207C304.839 33.3207 308.415 38.4247 308.415 48.6328V49.459ZM297.686 35.1383C294.851 35.1383 292.645 36.1206 291.07 38.0851C289.495 40.0496 288.67 43.235 288.596 47.6414H306.442C306.368 43.2166 305.589 40.0312 304.107 38.0851C302.624 36.1206 300.484 35.1383 297.686 35.1383Z" fill="#111111"/>
<path d="M325.493 64C321.972 64 319.164 62.825 317.07 60.4749C314.995 58.1248 313.957 54.3794 313.957 49.2387C313.957 43.8409 315.171 39.8384 317.599 37.2313C320.026 34.6242 323.621 33.3207 328.384 33.3207C330.2 33.3207 332.108 33.4859 334.11 33.8164V19H336V63.5043H334.332L334.165 60.227H333.943C332.979 61.3837 331.766 62.3017 330.302 62.981C328.838 63.6603 327.235 64 325.493 64ZM325.576 62.1824C327.263 62.1824 328.856 61.7968 330.357 61.0257C331.877 60.2546 333.128 59.0887 334.11 57.5282V35.7717C333.332 35.5698 332.414 35.4137 331.358 35.3035C330.32 35.1934 329.301 35.1383 328.3 35.1383C324.149 35.1383 321.055 36.2491 319.016 38.4706C316.978 40.6738 315.959 44.1897 315.959 49.0184C315.959 53.8103 316.792 57.2069 318.46 59.2081C320.147 61.1909 322.519 62.1824 325.576 62.1824Z" fill="#111111"/>
<g clip-path="url(#clip0_304_117)">
<path opacity="0.2" d="M96.3029 62.0359C82.2281 76.0387 59.5023 76.1279 59.5023 76.1279C59.5023 76.1279 59.5023 53.5183 73.6219 39.5155C87.7415 25.5127 110.423 25.4681 110.423 25.4681C110.423 25.4681 110.333 48.0777 96.3029 62.0359Z" fill="#D2116B"/>
<path opacity="0.3" d="M84.29 45.625C79.1353 64.7562 59.5023 76.1279 59.5023 76.1279C59.5023 76.1279 48.2066 56.5062 53.3613 37.375C58.5161 18.2438 77.9698 7.09503 77.9698 7.09503C77.9698 7.09503 89.4448 26.5384 84.29 45.625Z" fill="#D2116B"/>
<path opacity="0.5" d="M65.6879 37.375C70.8427 56.5062 59.5022 76.1279 59.5022 76.1279C59.5022 76.1279 39.8692 64.7562 34.7144 45.625C29.5596 26.4938 40.9001 7.09503 40.9001 7.09503C40.9001 7.09503 60.5332 18.2883 65.6879 37.375Z" fill="#D2116B"/>
<path opacity="0.8" d="M45.3826 39.5155C59.4574 53.5183 59.5022 76.1279 59.5022 76.1279C59.5022 76.1279 36.7764 76.1279 22.7464 62.0359C8.71642 47.944 8.62677 25.4681 8.62677 25.4681C8.62677 25.4681 31.3526 25.5573 45.3826 39.5155Z" fill="#D2116B"/>
</g>
<defs>
<clipPath id="clip0_304_117">
<rect width="101.796" height="69.1667" fill="white" transform="translate(8.62677 6.91666)"/>
</clipPath>
</defs>
</svg>
